<svg width="960" height="540" viewBox="0 0 960 540" fill="none" xmlns="http://www.w3.org/2000/svg">
<path d="M367.216 225.507H366.992V225.528C367.068 225.521 367.131 225.515 367.216 225.507Z" fill="#168F8C"/>
<path d="M368.674 223.416V357.108H400.111V256.913C400.111 249.43 396.118 226.823 368.674 223.416Z" fill="#0CA49D"/>
<path d="M201.57 333.843C205.568 333.843 208.836 333.336 211.375 332.322C213.911 331.307 215.896 329.995 217.331 328.384C218.762 326.773 219.746 324.953 220.284 322.924C220.821 320.898 221.089 318.839 221.089 316.751C221.089 314.365 220.776 312.217 220.148 310.306C219.524 308.397 218.448 306.788 216.925 305.474C215.405 304.162 213.389 303.147 210.882 302.431C208.375 301.716 205.211 301.357 201.39 301.357H180.262V333.843H201.57ZM180.262 248.914V281.132H196.02C199.361 281.132 202.377 280.894 205.063 280.416C207.747 279.938 210.032 279.104 211.911 277.909C213.79 276.717 215.225 275.077 216.209 272.988C217.193 270.9 217.687 268.275 217.687 265.113C217.687 262.011 217.298 259.43 216.523 257.372C215.746 255.313 214.552 253.658 212.941 252.404C211.33 251.151 209.284 250.257 206.809 249.719C204.332 249.182 201.39 248.914 197.99 248.914H180.262ZM197.99 226.272C207.002 226.272 214.673 227.109 221 228.778C227.325 230.45 232.49 232.805 236.49 235.848C240.487 238.891 243.396 242.591 245.219 246.945C247.038 251.301 247.949 256.163 247.949 261.533C247.949 264.456 247.531 267.276 246.698 269.99C245.861 272.706 244.546 275.24 242.756 277.596C240.965 279.954 238.667 282.116 235.862 284.086C233.055 286.054 229.685 287.755 225.746 289.185C234.339 291.274 240.697 294.644 244.815 299.299C248.933 303.952 250.995 309.979 250.995 317.376C250.995 322.924 249.92 328.087 247.77 332.859C245.622 337.633 242.471 341.794 238.323 345.343C234.176 348.893 229.057 351.667 222.968 353.666C216.882 355.666 209.927 356.664 202.109 356.664H150V226.272H197.99Z" fill="#0CA49D"/>
<path d="M341.96 252.762C341.064 254.195 340.126 255.268 339.139 255.984C338.155 256.7 336.887 257.058 335.335 257.058C333.962 257.058 332.485 256.625 330.903 255.76C329.322 254.895 327.53 253.926 325.532 252.852C323.532 251.778 321.248 250.808 318.682 249.943C316.117 249.078 313.191 248.646 309.906 248.646C304.236 248.646 300.013 249.854 297.238 252.271C294.463 254.686 293.074 257.953 293.074 262.07C293.074 264.696 293.911 266.873 295.581 268.602C297.251 270.333 299.447 271.825 302.164 273.078C304.879 274.33 307.984 275.48 311.475 276.523C314.966 277.568 318.532 278.731 322.173 280.013C325.814 281.297 329.383 282.803 332.873 284.532C336.365 286.263 339.47 288.47 342.185 291.155C344.901 293.84 347.094 297.106 348.765 300.954C350.435 304.802 351.272 309.442 351.272 314.87C351.272 320.898 350.229 326.536 348.14 331.784C346.049 337.035 343.019 341.615 339.051 345.522C335.08 349.431 330.187 352.502 324.369 354.739C318.548 356.978 311.936 358.096 304.536 358.096C300.477 358.096 296.342 357.678 292.136 356.844C287.927 356.008 283.854 354.829 279.915 353.307C275.974 351.786 272.273 349.982 268.812 347.894C265.347 345.806 262.334 343.479 259.768 340.912L268.721 326.773C269.439 325.758 270.377 324.909 271.541 324.223C272.705 323.537 273.973 323.194 275.349 323.194C277.137 323.194 278.941 323.76 280.765 324.894C282.585 326.028 284.644 327.28 286.943 328.653C289.24 330.026 291.881 331.278 294.866 332.412C297.849 333.545 301.372 334.112 305.432 334.112C310.922 334.112 315.191 332.903 318.235 330.488C321.278 328.071 322.8 324.238 322.8 318.988C322.8 315.944 321.963 313.47 320.294 311.559C318.623 309.651 316.427 308.069 313.714 306.815C310.994 305.563 307.906 304.459 304.445 303.505C300.984 302.552 297.431 301.492 293.792 300.327C290.149 299.164 286.598 297.733 283.137 296.033C279.673 294.332 276.584 292.095 273.872 289.321C271.153 286.546 268.959 283.086 267.289 278.939C265.619 274.793 264.782 269.677 264.782 263.591C264.782 258.7 265.766 253.926 267.737 249.271C269.708 244.618 272.601 240.472 276.421 236.833C280.242 233.195 284.929 230.285 290.478 228.106C296.029 225.929 302.386 224.84 309.55 224.84C313.548 224.84 317.443 225.154 321.235 225.781C325.023 226.406 328.621 227.332 332.023 228.555C335.427 229.778 338.603 231.24 341.558 232.94C344.513 234.641 347.153 236.564 349.481 238.712L341.96 252.762Z" fill="#0CA49D"/>
<path d="M403.558 175.23C403.489 174.137 403.364 173.061 403.2 172C410.234 179.257 420.279 183.511 431.158 182.824C436.361 182.494 441.228 181.062 445.559 178.779C442.195 184.647 440.45 191.53 440.91 198.784C441.478 207.764 445.322 215.752 451.196 221.678C448.191 221.073 445.061 220.84 441.857 221.044C429.128 221.848 418.386 229.216 412.697 239.637C410.45 224.233 398.498 212.258 383.552 209.623C396.18 203.454 404.5 190.121 403.558 175.23Z" fill="#F9AD3C"/>
<path d="M457.497 303.763C458.938 303.763 460.18 303.598 461.221 303.268C462.263 302.938 463.114 302.478 463.774 301.888C464.451 301.28 464.946 300.568 465.258 299.752C465.571 298.919 465.727 298.008 465.727 297.018C465.727 295.091 465.041 293.572 463.669 292.461C462.298 291.332 460.241 290.768 457.497 290.768H449.424V303.763H457.497ZM449.424 274.439V287.174H456.091C457.515 287.174 458.747 287.018 459.789 286.705C460.848 286.393 461.716 285.959 462.393 285.403C463.088 284.847 463.6 284.179 463.93 283.398C464.26 282.599 464.425 281.731 464.425 280.794C464.425 278.589 463.765 276.983 462.445 275.976C461.126 274.951 459.077 274.439 456.299 274.439H449.424ZM456.299 270.455C458.591 270.455 460.562 270.68 462.211 271.132C463.878 271.583 465.241 272.226 466.3 273.059C467.376 273.892 468.166 274.917 468.67 276.132C469.173 277.33 469.425 278.684 469.425 280.195C469.425 281.115 469.277 282 468.982 282.851C468.704 283.684 468.279 284.466 467.706 285.195C467.133 285.924 466.404 286.584 465.518 287.174C464.65 287.747 463.626 288.216 462.445 288.58C465.189 289.101 467.246 290.082 468.618 291.523C470.006 292.947 470.701 294.822 470.701 297.148C470.701 298.728 470.406 300.169 469.815 301.471C469.243 302.773 468.392 303.893 467.263 304.831C466.152 305.768 464.781 306.497 463.149 307.018C461.517 307.522 459.659 307.773 457.575 307.773H444.398V270.455H456.299Z" fill="#0CA49D"/>
<path d="M497.38 293.919L491.52 278.736C491.347 278.285 491.164 277.764 490.973 277.174C490.782 276.566 490.6 275.924 490.427 275.247C490.062 276.653 489.689 277.825 489.307 278.762L483.447 293.919H497.38ZM507.901 307.773H503.995C503.543 307.773 503.179 307.661 502.901 307.435C502.623 307.209 502.415 306.923 502.276 306.575L498.786 297.565H482.041L478.551 306.575C478.447 306.888 478.247 307.166 477.952 307.409C477.657 307.652 477.292 307.773 476.858 307.773H472.952L487.874 270.455H492.979L507.901 307.773Z" fill="#0CA49D"/>
<path d="M543.046 270.455V307.773H540.52C540.12 307.773 539.782 307.704 539.504 307.565C539.244 307.426 538.983 307.192 538.723 306.862L517.134 278.736C517.168 279.17 517.194 279.596 517.212 280.012C517.229 280.429 517.238 280.82 517.238 281.184V307.773H512.811V270.455H515.415C515.64 270.455 515.831 270.472 515.988 270.507C516.144 270.524 516.283 270.568 516.404 270.637C516.526 270.689 516.647 270.776 516.769 270.897C516.891 271.002 517.021 271.141 517.16 271.314L538.749 299.414C538.714 298.962 538.679 298.528 538.645 298.112C538.627 297.678 538.619 297.27 538.619 296.888V270.455H543.046Z" fill="#0CA49D"/>
<path d="M557.613 286.809H559.514C560.173 286.809 560.703 286.731 561.102 286.575C561.502 286.401 561.866 286.115 562.196 285.716L574.618 271.653C574.966 271.201 575.33 270.889 575.712 270.715C576.094 270.542 576.563 270.455 577.119 270.455H581.389L567.17 286.523C566.823 286.94 566.484 287.287 566.155 287.565C565.842 287.825 565.504 288.042 565.139 288.216C565.608 288.372 566.033 288.606 566.415 288.919C566.797 289.214 567.17 289.605 567.535 290.091L582.379 307.773H578.004C577.674 307.773 577.388 307.756 577.145 307.721C576.919 307.669 576.719 307.6 576.546 307.513C576.372 307.409 576.216 307.296 576.077 307.174C575.955 307.036 575.834 306.879 575.712 306.706L562.847 291.888C562.5 291.454 562.127 291.15 561.727 290.976C561.328 290.785 560.72 290.69 559.904 290.69H557.613V307.773H552.586V270.455H557.613V286.809Z" fill="#0CA49D"/>
<path d="M619.488 276.288C619.332 276.549 619.158 276.748 618.967 276.887C618.794 277.009 618.577 277.07 618.316 277.07C618.021 277.07 617.674 276.922 617.274 276.627C616.875 276.332 616.372 276.01 615.764 275.663C615.174 275.299 614.453 274.969 613.602 274.674C612.769 274.378 611.753 274.231 610.556 274.231C609.427 274.231 608.429 274.387 607.561 274.7C606.71 274.995 605.989 275.403 605.399 275.924C604.826 276.444 604.392 277.061 604.097 277.773C603.802 278.467 603.654 279.222 603.654 280.038C603.654 281.08 603.906 281.948 604.409 282.643C604.93 283.32 605.607 283.901 606.441 284.387C607.292 284.874 608.246 285.299 609.305 285.663C610.382 286.011 611.476 286.375 612.587 286.757C613.715 287.139 614.809 287.573 615.868 288.059C616.945 288.528 617.9 289.127 618.733 289.856C619.584 290.585 620.261 291.48 620.764 292.539C621.285 293.598 621.545 294.9 621.545 296.445C621.545 298.077 621.268 299.613 620.712 301.054C620.157 302.478 619.341 303.719 618.264 304.779C617.205 305.838 615.894 306.671 614.332 307.279C612.786 307.886 611.024 308.19 609.045 308.19C606.614 308.19 604.409 307.756 602.43 306.888C600.451 306.003 598.758 304.813 597.352 303.32L598.81 300.924C598.949 300.733 599.114 300.577 599.305 300.455C599.513 300.317 599.739 300.247 599.982 300.247C600.208 300.247 600.46 300.343 600.737 300.534C601.033 300.707 601.363 300.933 601.727 301.211C602.092 301.489 602.508 301.792 602.977 302.122C603.446 302.452 603.975 302.756 604.566 303.034C605.173 303.311 605.859 303.546 606.623 303.737C607.387 303.91 608.246 303.997 609.201 303.997C610.399 303.997 611.467 303.832 612.405 303.502C613.342 303.173 614.132 302.712 614.774 302.122C615.434 301.515 615.938 300.794 616.285 299.961C616.632 299.127 616.806 298.198 616.806 297.174C616.806 296.046 616.545 295.126 616.024 294.414C615.521 293.684 614.853 293.077 614.019 292.591C613.186 292.105 612.231 291.697 611.154 291.367C610.078 291.02 608.984 290.672 607.873 290.325C606.762 289.96 605.668 289.544 604.592 289.075C603.515 288.606 602.56 287.999 601.727 287.252C600.894 286.506 600.217 285.577 599.696 284.466C599.192 283.337 598.941 281.948 598.941 280.299C598.941 278.979 599.192 277.703 599.696 276.471C600.217 275.238 600.963 274.144 601.935 273.189C602.925 272.234 604.132 271.47 605.555 270.897C606.996 270.325 608.646 270.038 610.503 270.038C612.587 270.038 614.479 270.368 616.181 271.028C617.9 271.687 619.41 272.642 620.712 273.892L619.488 276.288Z" fill="#0CA49D"/>
<path d="M641.927 292.903V307.773H636.875V292.903L623.203 270.455H627.63C628.081 270.455 628.437 270.568 628.698 270.793C628.958 271.002 629.184 271.279 629.375 271.627L637.917 286.132C638.229 286.74 638.516 287.313 638.776 287.851C639.037 288.372 639.262 288.901 639.453 289.44C639.644 288.901 639.861 288.372 640.104 287.851C640.348 287.313 640.617 286.74 640.912 286.132L649.428 271.627C649.584 271.332 649.801 271.062 650.079 270.819C650.357 270.576 650.712 270.455 651.146 270.455H655.6L641.927 292.903Z" fill="#0CA49D"/>
<path d="M676.575 293.919L670.715 278.736C670.542 278.285 670.36 277.764 670.169 277.174C669.978 276.566 669.795 275.924 669.622 275.247C669.257 276.653 668.884 277.825 668.502 278.762L662.642 293.919H676.575ZM687.096 307.773H683.19C682.738 307.773 682.374 307.661 682.096 307.435C681.818 307.209 681.61 306.923 681.471 306.575L677.981 297.565H661.236L657.746 306.575C657.642 306.888 657.442 307.166 657.147 307.409C656.852 307.652 656.488 307.773 656.053 307.773H652.147L667.069 270.455H672.174L687.096 307.773Z" fill="#0CA49D"/>
<path d="M702.345 288.528C703.803 288.528 705.088 288.355 706.199 288.007C707.327 287.643 708.265 287.139 709.011 286.497C709.775 285.837 710.348 285.056 710.73 284.153C711.112 283.25 711.303 282.252 711.303 281.158C711.303 278.936 710.574 277.26 709.116 276.132C707.657 275.003 705.47 274.439 702.553 274.439H697.032V288.528H702.345ZM719.585 307.773H715.105C714.185 307.773 713.508 307.417 713.074 306.706L703.386 293.372C703.091 292.955 702.77 292.66 702.423 292.487C702.093 292.296 701.572 292.2 700.86 292.2H697.032V307.773H692.006V270.455H702.553C704.914 270.455 706.954 270.698 708.673 271.184C710.392 271.653 711.807 272.338 712.918 273.241C714.046 274.144 714.88 275.238 715.418 276.523C715.956 277.79 716.225 279.214 716.225 280.794C716.225 282.113 716.017 283.346 715.6 284.492C715.183 285.637 714.576 286.67 713.777 287.591C712.996 288.493 712.032 289.266 710.886 289.908C709.758 290.551 708.473 291.037 707.032 291.367C707.675 291.731 708.23 292.261 708.699 292.955L719.585 307.773Z" fill="#0CA49D"/>
<path d="M729.713 307.773H724.661V270.455H729.713V307.773Z" fill="#0CA49D"/>
<path d="M759.077 293.919L753.217 278.736C753.044 278.285 752.862 277.764 752.671 277.174C752.48 276.566 752.297 275.924 752.124 275.247C751.759 276.653 751.386 277.825 751.004 278.762L745.144 293.919H759.077ZM769.598 307.773H765.692C765.24 307.773 764.876 307.661 764.598 307.435C764.32 307.209 764.112 306.923 763.973 306.575L760.483 297.565H743.738L740.248 306.575C740.144 306.888 739.944 307.166 739.649 307.409C739.354 307.652 738.989 307.773 738.555 307.773H734.649L749.571 270.455H754.676L769.598 307.773Z" fill="#0CA49D"/>
<path d="M804.743 270.455V307.773H799.691V290.794H779.56V307.773H774.508V270.455H779.56V287.096H799.691V270.455H804.743Z" fill="#0CA49D"/>
<path d="M449.45 356.967H444.398V319.648H449.45V356.967Z" fill="#0CA49D"/>
<path d="M489.231 319.648V356.967H486.705C486.306 356.967 485.967 356.898 485.69 356.759C485.429 356.62 485.169 356.385 484.908 356.056L463.319 327.93C463.354 328.364 463.38 328.789 463.397 329.206C463.415 329.623 463.423 330.013 463.423 330.378V356.967H458.996V319.648H461.6C461.826 319.648 462.017 319.666 462.173 319.701C462.329 319.718 462.468 319.761 462.59 319.831C462.711 319.883 462.833 319.97 462.954 320.091C463.076 320.195 463.206 320.334 463.345 320.508L484.934 348.607C484.9 348.156 484.865 347.722 484.83 347.305C484.813 346.871 484.804 346.463 484.804 346.081V319.648H489.231Z" fill="#0CA49D"/>
<path d="M531.117 338.321C531.117 341.116 530.674 343.659 529.789 345.951C528.903 348.243 527.653 350.205 526.038 351.837C524.424 353.469 522.479 354.736 520.205 355.639C517.948 356.524 515.448 356.967 512.705 356.967H498.772V319.648H512.705C515.448 319.648 517.948 320.1 520.205 321.003C522.479 321.888 524.424 323.155 526.038 324.805C527.653 326.437 528.903 328.399 529.789 330.69C530.674 332.982 531.117 335.526 531.117 338.321ZM525.934 338.321C525.934 336.029 525.622 333.98 524.997 332.175C524.372 330.369 523.486 328.841 522.34 327.591C521.195 326.341 519.806 325.386 518.174 324.727C516.542 324.067 514.719 323.737 512.705 323.737H503.824V352.878H512.705C514.719 352.878 516.542 352.549 518.174 351.889C519.806 351.229 521.195 350.283 522.34 349.05C523.486 347.8 524.372 346.272 524.997 344.467C525.622 342.661 525.934 340.612 525.934 338.321Z" fill="#0CA49D"/>
<path d="M572.876 338.321C572.876 341.116 572.433 343.685 571.547 346.029C570.662 348.356 569.412 350.361 567.797 352.045C566.183 353.729 564.238 355.04 561.964 355.977C559.707 356.898 557.207 357.358 554.464 357.358C551.72 357.358 549.22 356.898 546.963 355.977C544.706 355.04 542.77 353.729 541.156 352.045C539.541 350.361 538.291 348.356 537.406 346.029C536.52 343.685 536.077 341.116 536.077 338.321C536.077 335.526 536.52 332.965 537.406 330.638C538.291 328.294 539.541 326.281 541.156 324.596C542.77 322.895 544.706 321.576 546.963 320.638C549.22 319.701 551.72 319.232 554.464 319.232C557.207 319.232 559.707 319.701 561.964 320.638C564.238 321.576 566.183 322.895 567.797 324.596C569.412 326.281 570.662 328.294 571.547 330.638C572.433 332.965 572.876 335.526 572.876 338.321ZM567.693 338.321C567.693 336.029 567.381 333.972 566.756 332.149C566.131 330.326 565.245 328.789 564.099 327.539C562.953 326.272 561.564 325.3 559.932 324.623C558.3 323.945 556.477 323.607 554.464 323.607C552.467 323.607 550.653 323.945 549.021 324.623C547.389 325.3 545.991 326.272 544.828 327.539C543.682 328.789 542.796 330.326 542.171 332.149C541.546 333.972 541.234 336.029 541.234 338.321C541.234 340.612 541.546 342.67 542.171 344.493C542.796 346.298 543.682 347.835 544.828 349.102C545.991 350.352 547.389 351.316 549.021 351.993C550.653 352.653 552.467 352.983 554.464 352.983C556.477 352.983 558.3 352.653 559.932 351.993C561.564 351.316 562.953 350.352 564.099 349.102C565.245 347.835 566.131 346.298 566.756 344.493C567.381 342.67 567.693 340.612 567.693 338.321Z" fill="#0CA49D"/>
<path d="M610.339 319.648V356.967H607.813C607.414 356.967 607.075 356.898 606.798 356.759C606.537 356.62 606.277 356.385 606.016 356.056L584.427 327.93C584.462 328.364 584.488 328.789 584.505 329.206C584.523 329.623 584.531 330.013 584.531 330.378V356.967H580.104V319.648H582.708C582.934 319.648 583.125 319.666 583.281 319.701C583.437 319.718 583.576 319.761 583.698 319.831C583.819 319.883 583.941 319.97 584.063 320.091C584.184 320.195 584.314 320.334 584.453 320.508L606.042 348.607C606.008 348.156 605.973 347.722 605.938 347.305C605.921 346.871 605.912 346.463 605.912 346.081V319.648H610.339Z" fill="#0CA49D"/>
<path d="M642.902 352.852L642.876 356.967H619.88V319.648H642.876V323.763H624.932V336.159H639.464V340.118H624.932V352.852H642.902Z" fill="#0CA49D"/>
<path d="M669.03 325.482C668.874 325.742 668.7 325.942 668.509 326.081C668.336 326.202 668.119 326.263 667.858 326.263C667.563 326.263 667.216 326.116 666.816 325.82C666.417 325.525 665.914 325.204 665.306 324.857C664.716 324.492 663.995 324.162 663.144 323.867C662.311 323.572 661.295 323.425 660.097 323.425C658.969 323.425 657.971 323.581 657.103 323.893C656.252 324.188 655.531 324.596 654.941 325.117C654.368 325.638 653.934 326.254 653.639 326.966C653.344 327.661 653.196 328.416 653.196 329.232C653.196 330.274 653.448 331.142 653.951 331.836C654.472 332.513 655.149 333.095 655.983 333.581C656.833 334.067 657.788 334.493 658.847 334.857C659.924 335.204 661.018 335.569 662.129 335.951C663.257 336.333 664.351 336.767 665.41 337.253C666.487 337.722 667.441 338.321 668.275 339.05C669.125 339.779 669.803 340.673 670.306 341.732C670.827 342.791 671.087 344.093 671.087 345.639C671.087 347.271 670.81 348.807 670.254 350.248C669.698 351.672 668.882 352.913 667.806 353.972C666.747 355.031 665.436 355.865 663.874 356.472C662.328 357.08 660.566 357.384 658.587 357.384C656.156 357.384 653.951 356.95 651.972 356.082C649.993 355.196 648.3 354.007 646.894 352.514L648.352 350.118C648.491 349.927 648.656 349.771 648.847 349.649C649.055 349.51 649.281 349.441 649.524 349.441C649.75 349.441 650.002 349.536 650.279 349.727C650.575 349.901 650.904 350.127 651.269 350.404C651.634 350.682 652.05 350.986 652.519 351.316C652.988 351.646 653.517 351.95 654.108 352.227C654.715 352.505 655.401 352.74 656.165 352.93C656.929 353.104 657.788 353.191 658.743 353.191C659.941 353.191 661.009 353.026 661.946 352.696C662.884 352.366 663.674 351.906 664.316 351.316C664.976 350.708 665.48 349.988 665.827 349.154C666.174 348.321 666.348 347.392 666.348 346.368C666.348 345.239 666.087 344.319 665.566 343.607C665.063 342.878 664.394 342.271 663.561 341.784C662.728 341.298 661.773 340.89 660.696 340.56C659.62 340.213 658.526 339.866 657.415 339.519C656.304 339.154 655.21 338.737 654.134 338.269C653.057 337.8 652.102 337.192 651.269 336.446C650.436 335.699 649.759 334.77 649.238 333.659C648.734 332.531 648.482 331.142 648.482 329.492C648.482 328.173 648.734 326.897 649.238 325.664C649.759 324.432 650.505 323.338 651.477 322.383C652.467 321.428 653.674 320.664 655.097 320.091C656.538 319.518 658.188 319.232 660.045 319.232C662.129 319.232 664.021 319.562 665.723 320.221C667.441 320.881 668.952 321.836 670.254 323.086L669.03 325.482Z" fill="#0CA49D"/>
<path d="M683.274 356.967H678.221V319.648H683.274V356.967Z" fill="#0CA49D"/>
<path d="M712.638 343.113L706.778 327.93C706.605 327.478 706.422 326.958 706.231 326.367C706.04 325.76 705.858 325.117 705.684 324.44C705.32 325.846 704.947 327.018 704.565 327.956L698.705 343.113H712.638ZM723.159 356.967H719.253C718.801 356.967 718.437 356.854 718.159 356.628C717.881 356.403 717.673 356.116 717.534 355.769L714.044 346.758H697.299L693.809 355.769C693.705 356.082 693.505 356.359 693.21 356.602C692.915 356.846 692.55 356.967 692.116 356.967H688.21L703.132 319.648H708.237L723.159 356.967Z" fill="#0CA49D"/>
</svg>
